<svg class="svg-icon" style="width: 1em; height: 1em;vertical-align: middle;fill: currentColor;overflow: hidden;" viewBox="0 0 1024 1024" version="1.1" xmlns="http://www.w3.org/2000/svg"><path d="M981.3 85.33H234.666V21.332c0-11.782-9.562-21.328-21.344-21.328H127.996c-11.782 0-21.328 9.546-21.328 21.328v63.998h-64c-11.782 0-21.344 9.562-21.344 21.344v85.328c0 11.782 9.562 21.328 21.344 21.328h64v789.354c0 11.75 9.546 21.312 21.328 21.312h85.328c11.782 0 21.344-9.562 21.344-21.312V213.33h128v42.672h-85.342v597.306h682.666V256.002H874.68v-42.672h106.624c11.812 0 21.376-9.546 21.376-21.328V106.674c-0.004-11.782-9.566-21.344-21.38-21.344zM149.324 44.004h42.67v41.326H149.324V44.004z m42.67 937.304H149.324V213.33h42.67v767.978z m725.306-170.624H319.994V298.674H917.3v512.01z m-85.31-554.682H405.322v-42.672h426.668v42.672z m127.998-85.328H170.682a21.316 21.316 0 0 0 15.062-6.25c8.328-8.328 8.328-21.844 0-30.172s-21.844-8.328-30.172 0-8.328 21.844 0 30.172a21.38 21.38 0 0 0 15.078 6.25H63.996V128.002h895.992v42.672z" fill="#080808" /><path d="M437.212 539.484c-5.046-1.344-25.61-4.218-25.61-11.624 0-4.718 4.376-7.422 12.124-7.422 9.454 0 15.172 4.218 15.344 11.468h34.562c-0.344-24.782-18.046-38.954-48.718-38.954-29 0-48.546 15.016-48.546 37.594 0 20.578 12.468 27.328 29.672 33.204 8.25 2.876 28.984 7.938 33.876 12 1.516 1.308 2.36 2.84 2.36 4.872 0 6.062-5.734 9.938-15 9.938-10.782 0-18.032-3.876-18.718-15.496h-36.906c0.328 26.808 20.89 43.152 54.438 43.152 32.03 0 52.436-15.844 52.436-40.782-0.002-24.966-21.252-32.716-41.314-37.95zM494.96 555.312c0 37.934 24.61 63.058 61.344 63.058 36.094 0 60.376-25.282 60.376-62.872 0-37.766-24.124-63.218-60-63.218-37.282 0.002-61.72 24.954-61.72 63.032z m84.47-1.5c0 22.746-8.124 34.746-23.124 34.746-15.156 0-23.922-12.312-23.922-33.746 0-20.546 8.938-33.032 23.766-33.032 14.654 0.002 23.28 11.97 23.28 32.032zM640.68 495.484v120.012h90.186v-31.344h-53.248v-88.668zM805.146 495.484h-53.594v120.012h52.938c39.248 0 61.186-20.376 61.186-60.308 0-37.454-23.782-59.704-60.53-59.704z m-3.03 89.7h-14.5v-59.528h10.968c18.876 0 30.532 9.782 30.532 30.188 0 18.032-8.938 29.34-27 29.34zM490.274 405.328h256.78c11.75 0 21.312-9.546 21.312-21.328s-9.562-21.328-21.312-21.328h-256.78c-11.782 0-21.328 9.546-21.328 21.328s9.546 21.328 21.328 21.328zM747.052 703.996h-256.78c-11.782 0-21.328 9.562-21.328 21.312 0 11.812 9.546 21.376 21.328 21.376h256.78c11.75 0 21.312-9.562 21.312-21.376 0.002-11.75-9.562-21.312-21.312-21.312z" fill="#080808" /></svg>